<svg width="95" height="96" viewBox="0 0 95 96" fill="none" xmlns="http://www.w3.org/2000/svg">
<path d="M25.1948 86.5937H20.5833C19.5335 86.5937 18.5267 86.1767 17.7844 85.4344C17.042 84.6921 16.625 83.6852 16.625 82.6354V13.3646C16.625 12.3148 17.042 11.308 17.7844 10.5656C18.5267 9.82329 19.5335 9.40625 20.5833 9.40625H25.1948M25.1948 86.5937V9.40625M25.1948 86.5937H74.4166C75.4665 86.5937 76.4733 86.1767 77.2156 85.4344C77.9579 84.6921 78.375 83.6852 78.375 82.6354V13.3646C78.375 12.3148 77.9579 11.308 77.2156 10.5656C76.4733 9.82329 75.4665 9.40625 74.4166 9.40625H25.1948" stroke="#19664A" stroke-width="4" stroke-linecap="round" stroke-linejoin="round"/>
<path d="M40.1118 23.5686H63.458V35.3268H40.1118V23.5686Z" stroke="#19664A" stroke-width="4" stroke-linecap="round" stroke-linejoin="round"/>
</svg>
