<svg width="130" height="25" viewBox="0 0 130 25" fill="none" xmlns="http://www.w3.org/2000/svg">
<path d="M24.0939 11.7002C23.4569 3.70948 15.2148 -1.4632 7.74576 1.44067C2.25272 3.57595 -0.94518 9.26522 0.249096 15.056C1.19449 19.6388 4.00683 22.6925 8.43412 24.2015C10.4873 24.9011 12.5498 23.6109 12.8338 21.4832C12.9423 20.6688 12.8764 19.83 12.8689 19.0031C12.8664 18.7411 12.9454 18.5586 13.1329 18.3749C14.1798 17.3449 15.2155 16.3036 16.2493 15.261C16.6517 14.8548 16.6737 14.3646 16.3226 14.0254C15.9715 13.6862 15.4951 13.727 15.0863 14.1351C14.4437 14.7764 13.8043 15.4209 13.1611 16.0622C13.0927 16.1306 13.0075 16.1814 12.8746 16.2829C12.8746 15.7312 12.8514 15.2523 12.8852 14.7771C12.8996 14.5746 12.9849 14.3326 13.1222 14.1909C14.1365 13.1477 15.176 12.1283 16.1972 11.0921C16.3414 10.9454 16.4862 10.7598 16.5364 10.5673C16.6317 10.2006 16.5119 9.87082 16.159 9.68274C15.8004 9.49216 15.4568 9.55047 15.1678 9.83571C14.5121 10.4827 13.8645 11.1378 13.2112 11.7873C13.1253 11.8726 13.0288 11.9465 12.8727 12.0813C12.8727 10.793 12.8746 9.60689 12.8721 8.42076C12.8708 7.83146 12.5649 7.47725 12.0702 7.47725C11.5787 7.47725 11.2678 7.83773 11.2665 8.42139C11.264 9.50282 11.2678 10.5849 11.2665 11.6663C11.2665 11.7779 11.2502 11.8889 11.2371 12.0663C11.0897 11.9296 10.9926 11.8437 10.901 11.7528C10.2766 11.1309 9.66914 10.4908 9.02028 9.8959C8.83472 9.72538 8.53505 9.61566 8.2799 9.59999C7.97271 9.58056 7.72758 9.78807 7.62539 10.0996C7.51067 10.4482 7.59342 10.7504 7.85798 11.0131C8.91872 12.0669 9.9757 13.1251 11.0289 14.1865C11.1267 14.2849 11.2502 14.4166 11.2559 14.5376C11.2803 15.093 11.2665 15.6504 11.2665 16.2071C11.2264 16.2296 11.1857 16.2516 11.1455 16.2741C10.4572 15.5695 9.77008 14.8636 9.07921 14.1608C8.65793 13.732 8.16141 13.6837 7.81222 14.0292C7.46428 14.3733 7.51004 14.8749 7.92882 15.2943C8.96637 16.3337 10.0077 17.3687 11.0358 18.4176C11.1524 18.5367 11.2515 18.7298 11.2571 18.8915C11.2809 19.5987 11.2778 20.3071 11.2646 21.0143C11.2427 22.2311 10.1155 23.0411 8.95258 22.6856C4.9867 21.4744 1.98315 17.7405 1.65778 13.6173C1.29981 9.07714 3.857 4.85361 8.04417 3.07003C12.1693 1.31341 16.9038 2.41428 19.9362 5.8341C23.981 10.3968 23.1867 17.6026 18.2159 21.1353C17.441 21.6863 16.5445 22.07 15.6944 22.5113C15.265 22.7345 15.0644 23.1351 15.2217 23.5646C15.3666 23.9601 15.7947 24.1564 16.2461 24.0241C16.3991 23.9796 16.5477 23.9156 16.6956 23.8542C21.5304 21.8506 24.512 16.95 24.0939 11.7002Z" fill="#19664A"/>
<path d="M17.7164 16.4887C17.2939 16.8781 16.7785 17.021 16.2149 17.0624C15.7517 17.0962 15.4376 17.4667 15.4639 17.888C15.4915 18.3244 15.8281 18.6466 16.2833 18.6604C16.4293 18.6648 16.5773 18.6547 16.7221 18.6334C19.3182 18.2598 20.7388 15.6894 19.6937 13.2839C19.6291 13.1347 19.6385 12.8884 19.72 12.7492C21.3099 10.0309 19.6373 6.70257 16.5096 6.3609C16.3127 6.33959 16.0833 6.22424 15.9491 6.07817C14.9072 4.94345 13.6251 4.3648 12.1199 4.33032C10.537 4.35603 9.24175 4.9353 8.19543 6.08882C8.07004 6.22674 7.85501 6.34147 7.67133 6.35902C4.59317 6.64678 2.82652 10.0064 4.3913 12.6426C4.55806 12.9235 4.54552 13.1235 4.42202 13.4037C3.37695 15.7678 5.06335 18.5212 7.62869 18.6585C8.25185 18.6917 8.65997 18.3927 8.68505 17.8843C8.70824 17.4109 8.37284 17.1031 7.76912 17.0429C7.729 17.0392 7.68951 17.036 7.64938 17.031C5.9636 16.8241 5.15614 14.9346 6.17362 13.5798C6.56168 13.0633 6.54726 12.763 6.11218 12.2759C5.39499 11.4734 5.23074 10.3851 5.68588 9.44471C6.1429 8.49994 7.10146 7.91691 8.15342 7.98838C8.61985 8.01973 8.9239 7.85986 9.19285 7.47682C10.6417 5.41363 13.5518 5.43558 14.9856 7.5138C15.2326 7.87115 15.5322 8.01722 15.9661 7.98587C17.0324 7.90813 18.0048 8.48991 18.47 9.45035C18.922 10.3845 18.7521 11.4859 18.0343 12.2815C17.5998 12.763 17.5885 13.0501 17.9841 13.5842C18.6624 14.5027 18.5533 15.717 17.7164 16.4887Z" fill="#19664A"/>
<path d="M37.5767 12.2121C38.1886 12.5053 38.6731 12.926 39.03 13.4742C39.3997 14.0224 39.5846 14.6535 39.5846 15.3674C39.5846 16.4383 39.2085 17.337 38.4564 18.0637C37.7042 18.7904 36.7863 19.1537 35.7027 19.1537H29.9276V5.76773H35.282C36.3273 5.76773 37.2134 6.11831 37.94 6.81948C38.6667 7.52066 39.03 8.38756 39.03 9.42019C39.03 10.6058 38.5456 11.5365 37.5767 12.2121ZM35.282 7.43142H31.706V11.5237H35.282C35.8429 11.5237 36.3146 11.3261 36.6971 10.9309C37.0795 10.5357 37.2707 10.0512 37.2707 9.47756C37.2707 8.91662 37.0731 8.43855 36.6779 8.04335C36.2955 7.63539 35.8302 7.43142 35.282 7.43142ZM35.7027 17.49C36.3018 17.49 36.8054 17.2797 37.2134 16.859C37.6213 16.4383 37.8253 15.922 37.8253 15.31C37.8253 14.7108 37.615 14.2009 37.1942 13.7802C36.7863 13.3595 36.2891 13.1491 35.7027 13.1491H31.706V17.49H35.7027Z" fill="#19664A"/>
<path d="M42.743 15.1379C42.9087 15.9921 43.2976 16.655 43.9095 17.1267C44.5342 17.5984 45.2991 17.8342 46.2042 17.8342C47.4664 17.8342 48.3842 17.3689 48.9579 16.4383L50.373 17.2414C49.4424 18.682 48.04 19.4023 46.166 19.4023C44.6489 19.4023 43.4123 18.9306 42.4562 17.9872C41.5128 17.0311 41.0411 15.8263 41.0411 14.373C41.0411 12.9324 41.5064 11.7341 42.437 10.7779C43.3677 9.82177 44.5724 9.3437 46.0513 9.3437C47.4536 9.3437 48.5946 9.84089 49.4743 10.8353C50.3666 11.8169 50.8129 13.0025 50.8129 14.3921C50.8129 14.6344 50.7937 14.8829 50.7555 15.1379H42.743ZM46.0513 10.9118C45.1589 10.9118 44.4194 11.1667 43.833 11.6767C43.2466 12.1739 42.8832 12.8432 42.743 13.6846H49.13C48.9898 12.7794 48.6328 12.091 48.0592 11.6193C47.4855 11.1476 46.8162 10.9118 46.0513 10.9118Z" fill="#19664A"/>
<path d="M57.6466 11.1986H55.1032V16.3809C55.1032 16.8526 55.1925 17.1904 55.371 17.3944C55.5622 17.5856 55.849 17.6876 56.2315 17.7004C56.6139 17.7004 57.0856 17.6876 57.6466 17.6621V19.1537C56.1932 19.3449 55.1287 19.2302 54.4531 18.8095C53.7774 18.3761 53.4396 17.5665 53.4396 16.3809V11.1986H51.5464V9.5923H53.4396V7.41229L55.1032 6.9151V9.5923H57.6466V11.1986Z" fill="#19664A"/>
<path d="M67.0475 9.5923H68.7112V19.1537H67.0475V17.5092C66.2189 18.7713 65.0141 19.4023 63.4333 19.4023C62.0947 19.4023 60.9537 18.9179 60.0103 17.949C59.0669 16.9673 58.5952 15.7753 58.5952 14.373C58.5952 12.9707 59.0669 11.785 60.0103 10.8162C60.9537 9.83452 62.0947 9.3437 63.4333 9.3437C65.0141 9.3437 66.2189 9.97475 67.0475 11.2369V9.5923ZM63.6437 17.796C64.6126 17.796 65.4221 17.4709 66.0723 16.8207C66.7225 16.1578 67.0475 15.3419 67.0475 14.373C67.0475 13.4041 66.7225 12.5946 66.0723 11.9444C65.4221 11.2815 64.6126 10.95 63.6437 10.95C62.6875 10.95 61.8844 11.2815 61.2342 11.9444C60.584 12.5946 60.2589 13.4041 60.2589 14.373C60.2589 15.3419 60.584 16.1578 61.2342 16.8207C61.8844 17.4709 62.6875 17.796 63.6437 17.796Z" fill="#19664A"/>
<path d="M74.2915 19.1537L70.4478 5.76773H72.3219L75.3815 16.7825L78.6324 5.76773H80.43L83.6808 16.7825L86.7405 5.76773H88.6145L84.7708 19.1537H82.7056L79.5312 8.46405L76.3568 19.1537H74.2915Z" fill="#19664A"/>
<path d="M90.8226 7.85212C90.5039 7.85212 90.2362 7.74376 90.0195 7.52703C89.8027 7.3103 89.6944 7.04896 89.6944 6.74299C89.6944 6.43703 89.8027 6.17568 90.0195 5.95896C90.2362 5.72948 90.5039 5.61475 90.8226 5.61475C91.1286 5.61475 91.3899 5.72948 91.6067 5.95896C91.8234 6.17568 91.9317 6.43703 91.9317 6.74299C91.9317 7.04896 91.8234 7.3103 91.6067 7.52703C91.3899 7.74376 91.1286 7.85212 90.8226 7.85212ZM89.9812 19.1537V9.5923H91.6449V19.1537H89.9812Z" fill="#19664A"/>
<path d="M98.9446 9.3437C100.066 9.3437 100.965 9.70066 101.641 10.4146C102.317 11.1157 102.654 12.0719 102.654 13.283V19.1537H100.991V13.3786C100.991 12.601 100.78 12.0018 100.36 11.5811C99.939 11.1476 99.3589 10.9309 98.6195 10.9309C97.7908 10.9309 97.1216 11.1922 96.6116 11.7149C96.1017 12.2249 95.8467 13.0153 95.8467 14.0862V19.1537H94.183V9.5923H95.8467V10.9691C96.5224 9.88551 97.555 9.3437 98.9446 9.3437Z" fill="#19664A"/>
<path d="M113.066 19.1537H111.001L106.641 14.6216V19.1537H104.977V5.76773H106.641V13.8184L110.771 9.5923H112.913L108.343 14.22L113.066 19.1537Z" fill="#19664A"/>
<path d="M114.902 15.1379C115.068 15.9921 115.456 16.655 116.068 17.1267C116.693 17.5984 117.458 17.8342 118.363 17.8342C119.625 17.8342 120.543 17.3689 121.117 16.4383L122.532 17.2414C121.601 18.682 120.199 19.4023 118.325 19.4023C116.808 19.4023 115.571 18.9306 114.615 17.9872C113.672 17.0311 113.2 15.8263 113.2 14.373C113.2 12.9324 113.665 11.7341 114.596 10.7779C115.527 9.82177 116.731 9.3437 118.21 9.3437C119.612 9.3437 120.753 9.84089 121.633 10.8353C122.526 11.8169 122.972 13.0025 122.972 14.3921C122.972 14.6344 122.953 14.8829 122.914 15.1379H114.902ZM118.21 10.9118C117.318 10.9118 116.578 11.1667 115.992 11.6767C115.405 12.1739 115.042 12.8432 114.902 13.6846H121.289C121.149 12.7794 120.792 12.091 120.218 11.6193C119.644 11.1476 118.975 10.9118 118.21 10.9118Z" fill="#19664A"/>
<path d="M126.548 11.1986C127.096 10.013 128.09 9.42019 129.531 9.42019V11.1604C128.715 11.1221 128.014 11.3388 127.427 11.8105C126.841 12.2822 126.548 13.0408 126.548 14.0862V19.1537H124.884V9.5923H126.548V11.1986Z" fill="#19664A"/>
</svg>
