<svg width="14" height="16" viewBox="0 0 14 16" fill="none" xmlns="http://www.w3.org/2000/svg">
<path d="M2.4313 14.2258L2.66642 13.9021L2.4313 14.2258ZM1.66314 13.4576L1.98674 13.2225L1.66314 13.4576ZM12.8369 13.4576L12.5133 13.2225L12.8369 13.4576ZM12.0687 14.2258L12.3038 14.5494L12.0687 14.2258ZM12.0687 3.05202L12.3038 2.72842L12.0687 3.05202ZM12.8369 3.82019L12.5133 4.0553L12.8369 3.82019ZM2.4313 3.05202L2.66642 3.37563L2.4313 3.05202ZM1.66314 3.82019L1.98674 4.0553L1.66314 3.82019ZM12.2624 10.765L12.1998 10.3699L12.2624 10.765ZM9.37608 13.6513L8.98101 13.5887L9.37608 13.6513ZM8.93333 3.08333C8.93333 3.30425 9.11242 3.48333 9.33333 3.48333C9.55425 3.48333 9.73333 3.30425 9.73333 3.08333H8.93333ZM9.73333 1C9.73333 0.779086 9.55425 0.6 9.33333 0.6C9.11242 0.6 8.93333 0.779086 8.93333 1H9.73333ZM4.76667 3.08333C4.76667 3.30425 4.94575 3.48333 5.16667 3.48333C5.38758 3.48333 5.56667 3.30425 5.56667 3.08333H4.76667ZM5.56667 1C5.56667 0.779086 5.38758 0.6 5.16667 0.6C4.94575 0.6 4.76667 0.779086 4.76667 1H5.56667ZM13.4799 10.7222L13.8797 10.7359L13.4799 10.7222ZM9.33333 14.8688L9.34703 15.2686L9.33333 14.8688ZM7.25 14.4889C5.9391 14.4889 4.98805 14.4883 4.24952 14.4083C3.51846 14.3291 3.04323 14.1759 2.66642 13.9021L2.19619 14.5494C2.7321 14.9387 3.36423 15.1171 4.16335 15.2037C4.95498 15.2894 5.95692 15.2889 7.25 15.2889V14.4889ZM0.6 8.63889C0.6 9.93197 0.599451 10.9339 0.685219 11.7255C0.771798 12.5247 0.950163 13.1568 1.33953 13.6927L1.98674 13.2225C1.71297 12.8457 1.55977 12.3704 1.48056 11.6394C1.40055 10.9008 1.4 9.94979 1.4 8.63889H0.6ZM2.66642 13.9021C2.4056 13.7127 2.17624 13.4833 1.98674 13.2225L1.33953 13.6927C1.57837 14.0214 1.86746 14.3105 2.19619 14.5494L2.66642 13.9021ZM12.5133 13.2225C12.3238 13.4833 12.0944 13.7127 11.8336 13.9021L12.3038 14.5494C12.6325 14.3105 12.9216 14.0214 13.1605 13.6927L12.5133 13.2225ZM13.9 8.63889C13.9 7.34581 13.9005 6.34387 13.8148 5.55223C13.7282 4.75311 13.5498 4.12099 13.1605 3.58508L12.5133 4.0553C12.787 4.43212 12.9402 4.90735 13.0194 5.6384C13.0995 6.37694 13.1 7.32799 13.1 8.63889H13.9ZM11.8336 3.37563C12.0944 3.56512 12.3238 3.79449 12.5133 4.0553L13.1605 3.58508C12.9216 3.25634 12.6325 2.96725 12.3038 2.72842L11.8336 3.37563ZM1.4 8.63889C1.4 7.32799 1.40055 6.37694 1.48056 5.6384C1.55977 4.90735 1.71297 4.43212 1.98674 4.0553L1.33953 3.58508C0.950163 4.12099 0.771798 4.75311 0.685219 5.55223C0.599451 6.34387 0.6 7.34581 0.6 8.63889H1.4ZM2.19619 2.72842C1.86746 2.96725 1.57837 3.25635 1.33953 3.58508L1.98674 4.0553C2.17624 3.79449 2.4056 3.56512 2.66642 3.37563L2.19619 2.72842ZM12.1998 10.3699C10.5429 10.6323 9.24343 11.9318 8.98101 13.5887L9.77116 13.7138C9.97937 12.3993 11.0104 11.3683 12.325 11.16L12.1998 10.3699ZM5.56667 3.08333V2.40898H4.76667V3.08333H5.56667ZM5.56667 2.40898V1H4.76667V2.40898H5.56667ZM7.25 1.98889C6.44046 1.98889 5.74763 1.98884 5.15297 2.00921L5.18036 2.80874C5.75841 2.78894 6.43603 2.78889 7.25 2.78889V1.98889ZM5.15297 2.00921C3.85346 2.05374 2.93055 2.19487 2.19619 2.72842L2.66642 3.37563C3.18845 2.99635 3.89073 2.85293 5.18036 2.80874L5.15297 2.00921ZM9.73333 3.08333V2.40898H8.93333V3.08333H9.73333ZM9.73333 2.40898V1H8.93333V2.40898H9.73333ZM7.25 2.78889C8.06397 2.78889 8.74159 2.78894 9.31964 2.80874L9.34703 2.00921C8.75237 1.98884 8.05954 1.98889 7.25 1.98889V2.78889ZM9.31964 2.80874C10.6093 2.85293 11.3115 2.99635 11.8336 3.37563L12.3038 2.72842C11.5695 2.19487 10.6465 2.05374 9.34703 2.00921L9.31964 2.80874ZM13.4799 10.3222C12.8628 10.3222 12.5057 10.3214 12.1998 10.3699L12.325 11.16C12.5532 11.1239 12.8335 11.1222 13.4799 11.1222L13.4799 10.3222ZM13.1 8.63889C13.1 9.45286 13.1 10.1305 13.0801 10.7085L13.8797 10.7359C13.9001 10.1413 13.9 9.44843 13.9 8.63889H13.1ZM13.0801 10.7085C13.036 11.9982 12.8925 12.7004 12.5133 13.2225L13.1605 13.6927C13.694 12.9583 13.8352 12.0354 13.8797 10.7359L13.0801 10.7085ZM9.73333 14.8688C9.73334 14.2224 9.735 13.9421 9.77116 13.7138L8.98101 13.5887C8.93256 13.8946 8.93334 14.2517 8.93333 14.8688L9.73333 14.8688ZM7.25 15.2889C8.05954 15.2889 8.75237 15.2889 9.34703 15.2686L9.31964 14.469C8.74159 14.4888 8.06397 14.4889 7.25 14.4889V15.2889ZM9.34703 15.2686C10.6465 15.224 11.5695 15.0829 12.3038 14.5494L11.8336 13.9021C11.3115 14.2814 10.6093 14.4248 9.31964 14.469L9.34703 15.2686Z" fill="#C8C7C7"/>
<path d="M4.4722 5.86095C4.4722 6.24448 4.16129 6.55539 3.77776 6.55539C3.39423 6.55539 3.08331 6.24448 3.08331 5.86095C3.08331 5.47742 3.39423 5.1665 3.77776 5.1665C4.16129 5.1665 4.4722 5.47742 4.4722 5.86095Z" fill="#C8C7C7"/>
<path d="M4.4722 8.63873C4.4722 9.02226 4.16129 9.33317 3.77776 9.33317C3.39423 9.33317 3.08331 9.02226 3.08331 8.63873C3.08331 8.2552 3.39423 7.94428 3.77776 7.94428C4.16129 7.94428 4.4722 8.2552 4.4722 8.63873Z" fill="#C8C7C7"/>
<path d="M7.94442 5.86095C7.94442 6.24448 7.63351 6.55539 7.24998 6.55539C6.86645 6.55539 6.55554 6.24448 6.55554 5.86095C6.55554 5.47742 6.86645 5.1665 7.24998 5.1665C7.63351 5.1665 7.94442 5.47742 7.94442 5.86095Z" fill="#C8C7C7"/>
<path d="M7.94442 8.63873C7.94442 9.02226 7.63351 9.33317 7.24998 9.33317C6.86645 9.33317 6.55554 9.02226 6.55554 8.63873C6.55554 8.2552 6.86645 7.94428 7.24998 7.94428C7.63351 7.94428 7.94442 8.2552 7.94442 8.63873Z" fill="#C8C7C7"/>
<path d="M7.94442 11.4165C7.94442 11.8 7.63351 12.1109 7.24998 12.1109C6.86645 12.1109 6.55554 11.8 6.55554 11.4165C6.55554 11.033 6.86645 10.7221 7.24998 10.7221C7.63351 10.7221 7.94442 11.033 7.94442 11.4165Z" fill="#C8C7C7"/>
<path d="M11.4166 5.86095C11.4166 6.24448 11.1057 6.55539 10.7222 6.55539C10.3387 6.55539 10.0278 6.24448 10.0278 5.86095C10.0278 5.47742 10.3387 5.1665 10.7222 5.1665C11.1057 5.1665 11.4166 5.47742 11.4166 5.86095Z" fill="#C8C7C7"/>
<path d="M11.4166 8.63873C11.4166 9.02226 11.1057 9.33317 10.7222 9.33317C10.3387 9.33317 10.0278 9.02226 10.0278 8.63873C10.0278 8.2552 10.3387 7.94428 10.7222 7.94428C11.1057 7.94428 11.4166 8.2552 11.4166 8.63873Z" fill="#C8C7C7"/>
<path d="M4.4722 11.4165C4.4722 11.8 4.16129 12.1109 3.77776 12.1109C3.39423 12.1109 3.08331 11.8 3.08331 11.4165C3.08331 11.033 3.39423 10.7221 3.77776 10.7221C4.16129 10.7221 4.4722 11.033 4.4722 11.4165Z" fill="#C8C7C7"/>
</svg>
