<svg width="95" height="96" viewBox="0 0 95 96" fill="none" xmlns="http://www.w3.org/2000/svg">
<path d="M70.1191 25.3808C75.116 30.3777 75.116 38.4792 70.1191 43.4761L64.0873 49.5078L59.5635 44.984M70.1191 25.3808C65.1222 20.384 57.0207 20.384 52.0239 25.3808L45.9921 31.4126L50.5159 35.9364M70.1191 25.3808L79.1667 16.3333M50.5159 35.9364L44.4842 41.9682M50.5159 35.9364L59.5635 44.984M59.5635 44.984L53.5318 51.0158M24.881 70.619C29.8778 75.6158 37.9793 75.6158 42.9762 70.619L49.0079 64.5872L30.9127 46.492L24.881 52.5237C19.8841 57.5206 19.8841 65.6221 24.881 70.619ZM24.881 70.619L15.8333 79.6666" stroke="#19664A" stroke-width="4" stroke-linecap="round" stroke-linejoin="round"/>
</svg>
