<svg width="19" height="22" viewBox="0 0 19 22" fill="none" xmlns="http://www.w3.org/2000/svg">
<path fill-rule="evenodd" clip-rule="evenodd" d="M9.5 0.25C6.87665 0.25 4.75 2.37665 4.75 5V5.25H1.5C1.08579 5.25 0.75 5.58579 0.75 6C0.75 6.41421 1.08579 6.75 1.5 6.75H17.5C17.9142 6.75 18.25 6.41421 18.25 6C18.25 5.58579 17.9142 5.25 17.5 5.25H14.25V5C14.25 2.37665 12.1234 0.25 9.5 0.25ZM9.5 1.75C11.2949 1.75 12.75 3.20507 12.75 5V5.25H6.25V5C6.25 3.20507 7.70507 1.75 9.5 1.75Z" fill="#FAFAFA"/>
<path d="M3.24664 7.92906C3.20746 7.5167 2.84142 7.21418 2.42906 7.25336C2.0167 7.29254 1.71418 7.65858 1.75336 8.07094C1.84783 9.06522 2.01833 10.2903 2.23748 11.8651L2.51903 13.8881C2.78819 15.8229 2.94085 16.9201 3.27109 17.819C3.8857 19.4918 4.98205 20.8328 6.39206 21.4278C7.15773 21.7509 8.03352 21.7506 9.33733 21.75H9.66267C10.9665 21.7506 11.8423 21.7509 12.6079 21.4278C14.0179 20.8328 15.1143 19.4918 15.7289 17.819C16.0592 16.9201 16.2118 15.8229 16.481 13.8881L16.7625 11.8651C16.9817 10.2903 17.1522 9.06522 17.2466 8.07094C17.2858 7.65858 16.9833 7.29254 16.5709 7.25336C16.1586 7.21418 15.7925 7.5167 15.7534 7.92906C15.6623 8.88702 15.4965 10.08 15.2744 11.6761L15.012 13.5611C14.7215 15.6488 14.5884 16.5736 14.3209 17.3017C13.805 18.7058 12.9472 19.6566 12.0248 20.0458C11.5746 20.2358 11.0292 20.25 9.5 20.25C7.97083 20.25 7.42544 20.2358 6.97524 20.0458C6.05279 19.6566 5.19496 18.7058 4.67907 17.3017C4.41156 16.5736 4.27851 15.6488 3.98798 13.5611L3.72564 11.6761C3.50352 10.08 3.33766 8.88703 3.24664 7.92906Z" fill="#FAFAFA"/>
</svg>
