<svg width="12" height="12" viewBox="0 0 12 12" fill="none" xmlns="http://www.w3.org/2000/svg">
<path fill-rule="evenodd" clip-rule="evenodd" d="M9.95029 2.61372C9.36424 2.01607 8.71183 1.83118 8.09914 1.87604C7.50303 1.91968 6.96618 2.17826 6.57408 2.42699C6.26487 2.62313 5.82475 2.62313 5.51554 2.42699C5.12344 2.17826 4.5866 1.91968 3.99048 1.87604C3.3778 1.83119 2.72539 2.01608 2.13935 2.61372C1.44748 3.31928 1.23041 4.19027 1.31757 5.07129C1.40373 5.94217 1.78573 6.82746 2.29521 7.6119C2.80605 8.39844 3.4586 9.10461 4.11325 9.61737C4.7535 10.1189 5.45012 10.4778 6.04483 10.4778C6.63954 10.4778 7.33615 10.1189 7.9764 9.61737C8.63105 9.10461 9.2836 8.39844 9.79443 7.6119C10.3039 6.82746 10.6859 5.94216 10.7721 5.07129C10.8592 4.19027 10.6422 3.31928 9.95029 2.61372ZM6.92878 2.98615C7.27552 2.7662 7.70469 2.56886 8.14749 2.53644C8.57372 2.50524 9.03313 2.62416 9.4775 3.07734C10.0087 3.61901 10.1845 4.28429 10.1131 5.0061C10.0407 5.73806 9.71261 6.52217 9.23911 7.25123C8.76696 7.97819 8.16362 8.62961 7.56809 9.09607C6.95816 9.57381 6.4103 9.81567 6.04483 9.81567C5.67936 9.81567 5.13149 9.57381 4.52156 9.09607C3.92602 8.62961 3.32268 7.97819 2.85054 7.25123C2.37703 6.52217 2.04894 5.73806 1.97653 5.0061C1.90511 4.28429 2.08097 3.61901 2.61214 3.07734C3.05651 2.62417 3.51591 2.50524 3.94214 2.53645C4.38494 2.56886 4.81411 2.7662 5.16084 2.98615C5.68657 3.31964 6.40305 3.31964 6.92878 2.98615Z" fill="#8A8A8A"/>
</svg>
