<svg width="15" height="16" viewBox="0 0 15 16" fill="none" xmlns="http://www.w3.org/2000/svg">
<path fill-rule="evenodd" clip-rule="evenodd" d="M6.71901 4.18767C5.7913 4.18767 5.03925 4.93972 5.03925 5.86742C5.03925 6.79513 5.7913 7.54718 6.71901 7.54718C7.64671 7.54718 8.39876 6.79513 8.39876 5.86742C8.39876 4.93972 7.64671 4.18767 6.71901 4.18767ZM5.95548 5.86742C5.95548 5.44574 6.29732 5.1039 6.71901 5.1039C7.14069 5.1039 7.48253 5.44574 7.48253 5.86742C7.48253 6.2891 7.14069 6.63095 6.71901 6.63095C6.29732 6.63095 5.95548 6.2891 5.95548 5.86742Z" fill="#C8C7C7"/>
<path fill-rule="evenodd" clip-rule="evenodd" d="M10.0562 1.81996C9.3586 1.74438 8.47926 1.74438 7.35747 1.74438H7.30219C6.18039 1.74438 5.30106 1.74438 4.60342 1.81996C3.89148 1.89709 3.31464 2.05732 2.82212 2.41516C2.52395 2.63179 2.26173 2.894 2.0451 3.19217C1.68727 3.68469 1.52704 4.26154 1.4499 4.97347C1.37432 5.67111 1.37432 6.55045 1.37433 7.67224V7.72752C1.37432 8.84931 1.37432 9.72865 1.4499 10.4263C1.52704 11.1382 1.68727 11.7151 2.0451 12.2076C2.05296 12.2184 2.06088 12.2292 2.06887 12.2399C2.28081 12.5247 2.53477 12.7758 2.82212 12.9846C3.31464 13.3424 3.89148 13.5027 4.60342 13.5798C5.30104 13.6554 6.18036 13.6554 7.30213 13.6554H7.35748C8.47924 13.6554 9.35861 13.6554 10.0562 13.5798C10.7682 13.5027 11.345 13.3424 11.8375 12.9846C12.1357 12.768 12.3979 12.5058 12.6145 12.2076C13.1459 11.4763 13.2488 10.543 13.2761 9.22725C13.2853 8.77994 13.2853 8.27423 13.2853 7.70353V7.67223C13.2853 6.55046 13.2853 5.6711 13.2097 4.97347C13.1326 4.26154 12.9724 3.68469 12.6145 3.19217C12.3979 2.894 12.1357 2.63179 11.8375 2.41516C11.345 2.05732 10.7682 1.89709 10.0562 1.81996ZM3.36066 3.1564C3.67096 2.93096 4.06813 2.79955 4.7021 2.73086C5.34466 2.66124 6.17442 2.66062 7.32983 2.66062C8.48524 2.66062 9.315 2.66124 9.95755 2.73086C10.5915 2.79955 10.9887 2.93096 11.299 3.1564C11.5194 3.31652 11.7132 3.51033 11.8733 3.73072C12.0987 4.04102 12.2302 4.43818 12.2988 5.07216C12.3685 5.71471 12.3691 6.54447 12.3691 7.69988C12.3691 7.85563 12.3691 8.00563 12.3689 8.15025C12.3042 8.09542 12.243 8.04724 12.1827 8.00445C10.6733 6.93275 8.59122 7.21656 7.42372 8.65313C7.32685 8.77233 7.23405 8.91196 7.12893 9.08606L7.05262 9.07079C6.38127 8.93644 5.97016 8.85418 5.5842 8.86237C4.55285 8.88427 3.58327 9.35848 2.93279 10.1591C2.76762 10.3624 2.62821 10.6005 2.46001 10.9238C2.41796 10.7508 2.38537 10.5544 2.3608 10.3276C2.29119 9.68505 2.29056 8.85529 2.29056 7.69988C2.29056 6.54447 2.29119 5.71471 2.3608 5.07216C2.42949 4.43818 2.5609 4.04102 2.78635 3.73072C2.94647 3.51033 3.14028 3.31652 3.36066 3.1564ZM11.6522 8.75152C11.8034 8.85886 11.9784 9.02707 12.3552 9.40295C12.3203 10.6067 12.1993 11.2204 11.8733 11.669C11.7132 11.8894 11.5194 12.0832 11.299 12.2434C10.9887 12.4688 10.5915 12.6002 9.95755 12.6689C9.315 12.7385 8.48524 12.7391 7.32983 12.7391C6.87672 12.7391 6.47369 12.7391 6.1124 12.7347L7.52872 10.2289C7.6081 10.0885 7.67706 9.96649 7.73863 9.85881C7.93377 9.51754 8.03926 9.34848 8.13476 9.23098C8.99769 8.16917 10.5366 7.9594 11.6522 8.75152ZM5.09855 12.6664C5.09211 12.6778 5.08622 12.6894 5.08086 12.701C4.94754 12.6924 4.82159 12.6818 4.7021 12.6689C4.06813 12.6002 3.67096 12.4688 3.36066 12.2434C3.22557 12.1452 3.10046 12.0344 2.98698 11.9126C3.33013 11.2263 3.47199 10.9485 3.64392 10.7369C4.12471 10.1451 4.84135 9.79458 5.60365 9.7784C5.83874 9.7734 6.09862 9.81621 6.64828 9.9246L5.09855 12.6664Z" fill="#C8C7C7"/>
</svg>
