<svg width="12" height="16" viewBox="0 0 12 16" fill="none" xmlns="http://www.w3.org/2000/svg">
<path fill-rule="evenodd" clip-rule="evenodd" d="M5.99996 4.16675C4.61925 4.16675 3.49996 5.28604 3.49996 6.66675C3.49996 8.04746 4.61925 9.16675 5.99996 9.16675C7.38067 9.16675 8.49996 8.04746 8.49996 6.66675C8.49996 5.28604 7.38067 4.16675 5.99996 4.16675ZM4.49996 6.66675C4.49996 5.83832 5.17153 5.16675 5.99996 5.16675C6.82839 5.16675 7.49996 5.83832 7.49996 6.66675C7.49996 7.49517 6.82839 8.16675 5.99996 8.16675C5.17153 8.16675 4.49996 7.49517 4.49996 6.66675Z" fill="#19664A"/>
<path fill-rule="evenodd" clip-rule="evenodd" d="M5.99996 0.166748C2.7444 0.166748 0.166626 2.99526 0.166626 6.40588C0.166626 7.49969 0.71003 8.78771 1.39372 9.99643C2.08848 11.2247 2.97521 12.4509 3.75265 13.4423L3.77858 13.4753C4.15805 13.9593 4.48132 14.3716 4.79479 14.6563C5.13679 14.967 5.51392 15.1704 5.99996 15.1704C6.486 15.1704 6.86313 14.967 7.20513 14.6563C7.5186 14.3716 7.84187 13.9593 8.22134 13.4753L8.24727 13.4423C9.02471 12.4509 9.91144 11.2247 10.6062 9.99643C11.2899 8.78771 11.8333 7.49969 11.8333 6.40588C11.8333 2.99526 9.25552 0.166748 5.99996 0.166748ZM1.16663 6.40588C1.16663 3.47722 3.36448 1.16675 5.99996 1.16675C8.63544 1.16675 10.8333 3.47722 10.8333 6.40588C10.8333 7.22354 10.4069 8.31766 9.73579 9.5041C9.07577 10.671 8.22277 11.853 7.46037 12.8252C7.04773 13.3514 6.77604 13.6951 6.53275 13.9161C6.31086 14.1177 6.16274 14.1704 5.99996 14.1704C5.83717 14.1704 5.68906 14.1177 5.46717 13.9161C5.22387 13.6951 4.95219 13.3514 4.53955 12.8252C3.77715 11.853 2.92415 10.671 2.26413 9.5041C1.59304 8.31766 1.16663 7.22354 1.16663 6.40588Z" fill="#19664A"/>
</svg>
