<svg width="46" height="46" viewBox="0 0 46 46" fill="none" xmlns="http://www.w3.org/2000/svg">
<path d="M22.75 0C28.7837 0 34.5702 2.39687 38.8367 6.66332C43.1031 10.9298 45.5 16.7163 45.5 22.75C45.5 28.7837 43.1031 34.5702 38.8367 38.8367C34.5702 43.1031 28.7837 45.5 22.75 45.5C16.7163 45.5 10.9298 43.1031 6.66332 38.8367C2.39687 34.5702 0 28.7837 0 22.75C0 16.7163 2.39687 10.9298 6.66332 6.66332C10.9298 2.39687 16.7163 0 22.75 0ZM22.75 42.25C27.9217 42.25 32.8816 40.1955 36.5386 36.5386C40.1955 32.8816 42.25 27.9217 42.25 22.75C42.25 17.5783 40.1955 12.6184 36.5386 8.96142C32.8816 5.30446 27.9217 3.25 22.75 3.25C17.5783 3.25 12.6184 5.30446 8.96142 8.96142C5.30446 12.6184 3.25 17.5783 3.25 22.75C3.25 27.9217 5.30446 32.8816 8.96142 36.5386C12.6184 40.1955 17.5783 42.25 22.75 42.25ZM20.3125 29.6757L30.7027 22.75L20.3125 15.8243V29.6757ZM20.852 12.2752L33.5205 20.722C33.8543 20.9446 34.1281 21.2462 34.3174 21.5999C34.5067 21.9537 34.6057 22.3488 34.6057 22.75C34.6057 23.1512 34.5067 23.5463 34.3174 23.9001C34.1281 24.2538 33.8543 24.5554 33.5205 24.778L20.852 33.2247C20.4849 33.4694 20.0583 33.6099 19.6177 33.6312C19.177 33.6525 18.7388 33.5538 18.3499 33.3457C17.9609 33.1375 17.6357 32.8277 17.409 32.4492C17.1823 32.0708 17.0625 31.6379 17.0625 31.1968V14.3C17.0625 13.8588 17.1823 13.426 17.409 13.0475C17.6357 12.6691 17.9609 12.3592 18.3499 12.1511C18.7388 11.9429 19.177 11.8442 19.6177 11.8655C20.0583 11.8868 20.4849 12.0273 20.852 12.272V12.2752Z" fill="white"/>
</svg>
