<svg width="11" height="12" viewBox="0 0 11 12" fill="none" xmlns="http://www.w3.org/2000/svg">
<path fill-rule="evenodd" clip-rule="evenodd" d="M5.3448 1.42822C4.18673 1.42822 3.24793 2.36703 3.24793 3.5251C3.24793 4.68317 4.18673 5.62197 5.3448 5.62197C6.50287 5.62197 7.44168 4.68317 7.44168 3.5251C7.44168 2.36703 6.50287 1.42822 5.3448 1.42822ZM3.9101 3.5251C3.9101 2.73273 4.55244 2.09039 5.3448 2.09039C6.13717 2.09039 6.7795 2.73273 6.7795 3.5251C6.7795 4.31746 6.13717 4.9598 5.3448 4.9598C4.55244 4.9598 3.9101 4.31746 3.9101 3.5251Z" fill="#8A8A8A"/>
<path fill-rule="evenodd" clip-rule="evenodd" d="M4.02046 6.28414C2.86239 6.28414 1.92358 7.22295 1.92358 8.38102C1.92358 9.53909 2.86239 10.4779 4.02046 10.4779H6.66914C7.82721 10.4779 8.76602 9.53909 8.76602 8.38102C8.76602 7.22295 7.82721 6.28414 6.66914 6.28414H4.02046ZM2.58575 8.38102C2.58575 7.58865 3.22809 6.94631 4.02046 6.94631H6.66914C7.46151 6.94631 8.10385 7.58865 8.10385 8.38102C8.10385 9.17338 7.46151 9.81572 6.66914 9.81572H4.02046C3.22809 9.81572 2.58575 9.17338 2.58575 8.38102Z" fill="#8A8A8A"/>
</svg>
