<svg width="20" height="20" viewBox="0 0 20 20" fill="none" xmlns="http://www.w3.org/2000/svg">
<path d="M19.5225 18.5313L15.2814 14.2879C16.7054 12.5918 17.4196 10.4115 17.2752 8.2016C17.1308 5.99174 16.1389 3.92292 14.5063 2.42657C12.8737 0.930213 10.7265 0.121835 8.51248 0.170004C6.29843 0.218174 4.18844 1.11917 2.62249 2.68511C1.05655 4.25106 0.155552 6.36105 0.107382 8.57511C0.0592126 10.7892 0.867591 12.9363 2.36395 14.5689C3.8603 16.2015 5.92911 17.1934 8.13898 17.3378C10.3488 17.4822 12.5292 16.768 14.2253 15.3441L18.4687 19.5851C18.5365 19.66 18.6189 19.7204 18.7108 19.7625C18.8027 19.8046 18.9022 19.8276 19.0032 19.83C19.1042 19.8325 19.2047 19.8145 19.2986 19.7769C19.3924 19.7394 19.4777 19.6832 19.5491 19.6117C19.6206 19.5403 19.6768 19.455 19.7143 19.3612C19.7518 19.2673 19.7699 19.1669 19.7674 19.0658C19.7649 18.9648 19.7419 18.8653 19.6998 18.7734C19.6577 18.6815 19.5974 18.5991 19.5225 18.5313ZM1.6256 8.78777C1.62329 7.38592 2.03674 6.01487 2.81365 4.84799C3.59056 3.68112 4.69604 2.77082 5.9903 2.23223C7.28456 1.69364 8.70946 1.55093 10.0848 1.82216C11.4602 2.09338 12.7242 2.76636 13.7171 3.75599C14.71 4.74561 15.3871 6.00744 15.6629 7.38191C15.9386 8.75637 15.8006 10.1817 15.2663 11.4778C14.732 12.7738 13.8253 13.8823 12.661 14.663C11.4967 15.4437 10.127 15.8617 8.72514 15.864C6.84607 15.8646 5.04344 15.12 3.71255 13.7935C2.38166 12.467 1.63115 10.6668 1.6256 8.78777Z" fill="#D9D9D9"/>
</svg>
