<svg width="25" height="25" viewBox="0 0 25 25" fill="none" xmlns="http://www.w3.org/2000/svg">
<path d="M13.5417 20.8334C13.5417 20.8334 13.4933 19.6251 13.5417 18.2292M13.5417 18.2292C13.5417 13.5417 13.5417 11.9792 15.625 9.84256M13.5417 18.2292C13.5417 16.6667 13.5417 13.0209 9.89583 11.7045M17.9627 12.5001C20.3012 11.1501 20.8333 8.62348 20.8333 5.72925C20.8333 5.24025 20.7884 4.76174 20.7025 4.29763C20.2383 4.21167 19.7598 4.16675 19.2708 4.16675C15.9151 4.16675 13.0536 5.24077 11.9473 8.21102C10.569 6.99081 8.75642 6.25008 6.77083 6.25008C5.88888 6.25008 5.04106 6.39622 4.25027 6.66562C4.19519 7.03996 4.16667 7.42294 4.16667 7.81258C4.16667 11.2142 5.29898 14.108 8.33333 15.1805" stroke="#19664A" stroke-width="1.7" stroke-linecap="round" stroke-linejoin="round"/>
</svg>
