<svg width="15" height="15" viewBox="0 0 15 15" fill="none" xmlns="http://www.w3.org/2000/svg">
<g clip-path="url(#clip0_1_748)">
<path d="M3.05411 5.23745C2.8011 5.23745 2.59599 5.44256 2.59599 5.69557C2.59599 5.94858 2.8011 6.15368 3.05411 6.15368H5.49739C5.7504 6.15368 5.9555 5.94858 5.9555 5.69557C5.9555 5.44256 5.7504 5.23745 5.49739 5.23745H3.05411Z" fill="#C8C7C7"/>
<path fill-rule="evenodd" clip-rule="evenodd" d="M7.54062 2.22648C7.01266 2.18334 6.35576 2.18335 5.51789 2.18335H5.47689C4.63901 2.18335 3.98212 2.18334 3.45415 2.22648C2.91655 2.27041 2.47241 2.36133 2.07041 2.56616C1.40955 2.90289 0.872247 3.44019 0.535519 4.10105C0.33069 4.50305 0.239765 4.94719 0.195841 5.48479C0.152705 6.01276 0.152707 6.66965 0.15271 7.50753V7.54852C0.152707 8.3864 0.152705 9.0433 0.195841 9.57126C0.239765 10.1089 0.33069 10.553 0.535519 10.955C0.872247 11.6159 1.40955 12.1532 2.07041 12.4899C2.47241 12.6947 2.91655 12.7856 3.45415 12.8296C3.98211 12.8727 4.63899 12.8727 5.47685 12.8727H5.5179C6.35575 12.8727 7.01267 12.8727 7.54062 12.8296C8.07823 12.7856 8.52236 12.6947 8.92436 12.4899C9.58523 12.1532 10.1225 11.6159 10.4593 10.955C10.4898 10.895 10.5178 10.8341 10.5436 10.772C11.2562 11.0834 11.8398 11.3361 12.3135 11.4646C12.8174 11.6013 13.3082 11.6295 13.747 11.3424C14.1857 11.0553 14.3565 10.5942 14.4329 10.0778C14.507 9.57772 14.507 8.9181 14.507 8.10841V6.94764C14.507 6.13796 14.507 5.47833 14.4329 4.97826C14.3565 4.46182 14.1857 4.00078 13.747 3.71368C13.3082 3.42658 12.8174 3.45474 12.3135 3.59143C11.8398 3.71994 11.2562 3.97267 10.5436 4.28402C10.5178 4.22195 10.4898 4.16103 10.4593 4.10105C10.1225 3.44019 9.58523 2.90289 8.92436 2.56616C8.52236 2.36133 8.07823 2.27041 7.54062 2.22648ZM10.8107 9.88889L10.7679 9.87016C10.8421 9.28736 10.8421 8.55624 10.8421 7.59227V7.46385C10.8421 6.4999 10.8421 5.76869 10.7679 5.18589L10.8107 5.16717C11.5967 4.82375 12.1388 4.58816 12.5534 4.4757C12.9598 4.36546 13.1313 4.40579 13.2453 4.48037C13.3593 4.55494 13.4649 4.69601 13.5266 5.11251C13.5895 5.53744 13.5908 6.12857 13.5908 6.98625V8.0698C13.5908 8.92748 13.5895 9.51861 13.5266 9.94355C13.4649 10.36 13.3593 10.5011 13.2453 10.5757C13.1313 10.6503 12.9598 10.6906 12.5534 10.5804C12.1388 10.4679 11.5967 10.2323 10.8107 9.88889ZM2.48637 3.38253C2.73768 3.25448 3.04782 3.17896 3.52876 3.13967C4.01506 3.09994 4.6346 3.09958 5.49739 3.09958C6.36018 3.09958 6.97971 3.09994 7.46601 3.13967C7.94696 3.17896 8.25709 3.25448 8.5084 3.38253C8.99687 3.63141 9.394 4.02855 9.64289 4.51701C9.71406 4.65669 9.76881 4.8143 9.81015 5.00805C9.9233 5.53838 9.92583 6.26823 9.92583 7.52803C9.92583 8.78758 9.92331 9.5174 9.81021 10.0477C9.76886 10.2416 9.71409 10.3993 9.64289 10.539C9.394 11.0275 8.99687 11.4246 8.5084 11.6735C8.25709 11.8016 7.94696 11.8771 7.46601 11.9164C6.97971 11.9561 6.36018 11.9565 5.49739 11.9565C4.6346 11.9565 4.01506 11.9561 3.52876 11.9164C3.04782 11.8771 2.73768 11.8016 2.48637 11.6735C1.99791 11.4246 1.60077 11.0275 1.35189 10.539C1.22384 10.2877 1.14832 9.9776 1.10903 9.49665C1.0693 9.01035 1.06894 8.39081 1.06894 7.52803C1.06894 6.66524 1.0693 6.0457 1.10903 5.5594C1.14832 5.07846 1.22384 4.76832 1.35189 4.51701C1.60077 4.02855 1.99791 3.63141 2.48637 3.38253Z" fill="#C8C7C7"/>
</g>
<defs>
<clipPath id="clip0_1_748">
<rect width="14.6597" height="14.6597" fill="white" transform="translate(0 0.198242)"/>
</clipPath>
</defs>
</svg>
