<svg width="95" height="96" viewBox="0 0 95 96" fill="none" xmlns="http://www.w3.org/2000/svg">
<path d="M79.1667 47.9999C79.1667 65.4889 64.989 79.6666 47.5 79.6666M79.1667 47.9999C79.1667 30.5109 64.989 16.3333 47.5 16.3333M79.1667 47.9999C59.232 57.9672 35.768 57.9672 15.8333 47.9999M47.5 79.6666C30.011 79.6666 15.8333 65.4889 15.8333 47.9999M47.5 79.6666C39.7271 79.6666 31.6667 65.4889 31.6667 47.9999C31.6667 30.5109 39.7271 16.3333 47.5 16.3333M47.5 79.6666C55.2729 79.6666 63.3333 65.4889 63.3333 47.9999C63.3333 30.5109 55.2729 16.3333 47.5 16.3333M15.8333 47.9999C15.8333 30.5109 30.011 16.3333 47.5 16.3333" stroke="#19664A" stroke-width="4"/>
</svg>
